<svg t="1666061610953" class="icon" viewBox="0 0 1024 1024" version="1.1" xmlns="http://www.w3.org/2000/svg" p-id="1571" data-spm-anchor-id="a313x.7781069.0.i1" width="200" height="200"><path d="M884.8 1014.4H144c-36.8 0-67.2-30.4-67.2-67.2V209.6c0-36.8 30.4-67.2 67.2-67.2h33.6v100.8c0 36.8 30.4 67.2 67.2 67.2h538.4c36.8 0 67.2-30.4 67.2-67.2V142.4H884c36.8 0 67.2 30.4 67.2 67.2v737.6c0.8 36.8-29.6 67.2-66.4 67.2z m-150.4-456c-20-19.2-52-19.2-72 0l-180 171.2-84-80c-20-19.2-52-19.2-72 0s-20 49.6 0 68l120 113.6c20 19.2 52 19.2 72 0l216-204.8c20-18.4 20-48.8 0-68z m-52-315.2h-336c-36.8 0-67.2-30.4-67.2-67.2v-33.6C413.6 44 415.2 42.4 450.4 8.8H584C616.8 40 616 44 749.6 142.4V176c0 37.6-29.6 67.2-67.2 67.2zM514.4 76c-36.8 0-67.2 30.4-67.2 67.2 0 36.8 30.4 67.2 67.2 67.2 36.8 0 67.2-30.4 67.2-67.2 0-37.6-30.4-67.2-67.2-67.2z m0 0" fill="#ffffff" p-id="1572"></path></svg>