<svg t="1666061425421" class="icon" viewBox="0 0 1024 1024" version="1.1" xmlns="http://www.w3.org/2000/svg" p-id="4075" width="200" height="200"><path d="M140.8 883.2a33.664 33.664 0 0 1-34.133333-34.133333 31.402667 31.402667 0 0 1 34.133333-34.133334h746.666667a34.133333 34.133333 0 1 1 0 68.266667z m0-140.8a33.664 33.664 0 0 1-34.133333-34.133333V170.666667a33.621333 33.621333 0 0 1 34.133333-34.133334h746.666667a33.706667 33.706667 0 0 1 34.133333 34.133334v537.6c-4.266667 17.066667-17.066667 34.133333-34.133333 34.133333z m29.866667-64h682.666666V204.8H170.666667z" p-id="4076"></path></svg>