<svg t="1666061338795" class="icon" viewBox="0 0 1024 1024" version="1.1" xmlns="http://www.w3.org/2000/svg" p-id="3930" width="200" height="200"><path d="M788.864 967.125333H235.136A66.432 66.432 0 0 1 170.666667 902.656V121.386667a66.474667 66.474667 0 0 1 64.469333-64.512h553.728A66.474667 66.474667 0 0 1 853.333333 121.386667v781.269333a66.432 66.432 0 0 1-64.469333 64.469333zM235.136 678.869333v216.192h553.728v-216.192H235.136z m0-64.469333h553.728V398.037333H235.136v216.192z m0-276.864h553.728V121.386667H235.136v216.149333zM341.333333 819.2a29.866667 29.866667 0 0 1-30.336-30.336 32.64 32.64 0 0 1 30.336-30.336 29.866667 29.866667 0 0 1 30.336 30.336c3.797333 15.189333-11.349333 30.336-30.336 30.336z m0-280.661333a29.866667 29.866667 0 0 1-30.336-30.336 36.522667 36.522667 0 0 1 30.336-34.133334 29.866667 29.866667 0 0 1 30.336 30.336 29.013333 29.013333 0 0 1-30.336 34.133334z m0-276.864a33.450667 33.450667 0 0 1-30.336-34.133334 30.336 30.336 0 0 1 60.672 0A29.013333 29.013333 0 0 1 341.333333 261.504z" p-id="3931"></path></svg>